<?xml version="1.0" ?><svg width="32px" height="32px" viewBox="0 0 32 32" data-name="Layer 1" id="Layer_1" xmlns="http://www.w3.org/2000/svg"><path d="M18,6V7H17a1,1,0,0,1-1-1V4h1V6Z"/><path d="M17,6V7h1a1,1,0,0,0,1-1V4H18V6Z"/><path d="M18,2V1H17a1,1,0,0,0-1,1V3h1V2Z"/><path d="M17,2V1h1a1,1,0,0,1,1,1V4H18V2Z"/><rect height="1" transform="translate(27 53) rotate(180)" width="19" x="4" y="26"/><rect height="1" transform="translate(32 59) rotate(180)" width="18" x="7" y="29"/><rect height="1" transform="translate(42 -13) rotate(90)" width="21" x="17" y="14"/><rect height="1" transform="translate(22.5 7.5) rotate(90)" width="22" x="-3.5" y="14.5"/><path d="M28,25H27v2a2,2,0,0,1-2,2h0v1h0a3,3,0,0,0,3-3Z"/><path d="M22,26h1v1a2,2,0,0,0,2,2h0v1h0a3,3,0,0,1-3-3Z"/><path d="M4,26H5v1a2,2,0,0,0,2,2H8v1H7a3,3,0,0,1-3-3Z"/><rect height="1" width="17" x="9" y="2"/><path d="M25,2V3h1a1,1,0,0,1,1,1V5h1V4a2,2,0,0,0-2-2Z"/><path d="M10,2V3H9A1,1,0,0,0,8,4V5H7V4A2,2,0,0,1,9,2Z"/></svg>