<?xml version="1.0" standalone="no"?>
<!DOCTYPE svg PUBLIC "-//W3C//DTD SVG 20010904//EN"
 "http://www.w3.org/TR/2001/REC-SVG-20010904/DTD/svg10.dtd">
<svg version="1.0" xmlns="http://www.w3.org/2000/svg"
 width="200.000000pt" height="200.000000pt" viewBox="0 0 200.000000 200.000000"
 preserveAspectRatio="xMidYMid meet">

<g transform="translate(0.000000,200.000000) scale(0.100000,-0.100000)"
fill="#000000" stroke="none">
<path d="M87 1399 c-70 -37 -97 -123 -63 -203 12 -29 29 -41 120 -85 58 -28
106 -54 106 -59 0 -4 -13 -21 -30 -37 -22 -21 -30 -38 -30 -62 l0 -33 320 0
320 0 0 55 c0 48 -2 55 -20 55 -13 0 -20 7 -20 20 0 17 -7 20 -40 20 -33 0
-40 -3 -40 -20 0 -18 -7 -20 -70 -20 -63 0 -70 2 -70 20 0 11 -4 20 -10 20 -5
0 -10 14 -10 30 0 23 -4 30 -20 30 -16 0 -20 -7 -20 -30 0 -16 -4 -30 -10 -30
-5 0 -10 -9 -10 -20 0 -16 -7 -20 -35 -20 l-35 0 0 50 0 50 -42 0 c-33 0 -49
-6 -73 -30 l-31 -30 -108 51 c-119 57 -136 77 -136 157 0 63 61 122 125 122
27 0 279 -122 290 -140 4 -7 -2 -22 -14 -34 l-21 -22 73 -35 c39 -19 74 -37
77 -40 14 -18 135 -70 138 -60 2 6 25 11 53 11 42 0 49 -3 49 -20 0 -13 7 -20
20 -20 15 0 20 -7 20 -29 0 -24 14 -41 36 -41 2 0 4 23 4 50 l0 50 50 0 50 0
0 -35 0 -35 73 1 72 0 -305 154 c-299 150 -305 153 -325 135 -20 -19 -23 -17
-165 55 -85 44 -157 74 -175 74 -16 0 -47 -9 -68 -20z"/>
<path d="M890 770 l0 -290 40 0 40 0 0 290 0 290 -40 0 -40 0 0 -290z"/>
<path d="M980 735 l0 -255 145 0 145 0 0 110 c0 103 -1 110 -20 110 -19 0 -20
7 -20 125 0 118 1 125 20 125 13 0 20 7 20 20 0 19 -7 20 -145 20 l-145 0 0
-255z m210 90 l0 -125 -85 0 -85 0 0 125 0 125 85 0 85 0 0 -125z"/>
<path d="M1030 915 c0 -21 12 -31 70 -60 38 -19 72 -35 75 -35 3 0 5 27 5 60
l0 60 -75 0 c-73 0 -75 -1 -75 -25z"/>
<path d="M1240 862 l0 -77 220 -110 c208 -103 218 -110 203 -127 -16 -17 -17
-17 -48 1 l-32 19 -37 -36 -36 -37 -115 58 c-103 51 -115 55 -115 37 0 -16 24
-32 105 -72 75 -38 101 -55 94 -64 -6 -8 0 -15 21 -24 17 -7 29 -15 26 -17 -2
-2 -31 9 -65 26 -58 30 -66 31 -186 31 l-127 0 24 -29 c13 -16 56 -45 96 -65
l72 -36 158 0 157 1 -35 19 c-42 23 -32 27 12 4 21 -11 34 -12 41 -5 6 6 60
-16 168 -70 140 -69 159 -77 159 -59 0 16 -30 35 -145 92 l-145 73 36 36 35
36 -30 13 c-17 7 -31 15 -31 18 0 4 30 37 66 73 l67 67 -301 151 c-166 83
-304 151 -307 151 -3 0 -5 -35 -5 -78z"/>
<path d="M190 695 l0 -215 195 0 195 0 0 215 0 215 -195 0 -195 0 0 -215z"/>
<path d="M590 805 l0 -105 145 0 145 0 0 105 0 105 -145 0 -145 0 0 -105z"/>
<path d="M590 585 l0 -105 145 0 145 0 0 105 0 105 -145 0 -145 0 0 -105z"/>
<path d="M302 447 c-28 -30 -28 -58 1 -85 23 -22 26 -22 428 -22 l406 0 21 23
c28 30 28 58 -1 85 -23 22 -26 22 -428 22 l-406 0 -21 -23z m72 -29 c8 -14 7
-21 -6 -34 -30 -30 -75 9 -48 42 16 18 39 15 54 -8z m506 -13 l0 -35 -215 0
-215 0 0 35 0 35 215 0 215 0 0 -35z m264 13 c8 -14 7 -21 -6 -34 -30 -30 -75
9 -48 42 16 18 39 15 54 -8z"/>
<path d="M0 165 l0 -165 1000 0 1000 0 0 100 0 100 -130 65 -130 65 -870 0
-870 0 0 -165z"/>
<path d="M1871 326 c2 -2 32 -18 67 -35 l62 -31 0 35 0 35 -67 0 c-36 0 -64
-2 -62 -4z"/>
</g>
</svg>
